# xmcd CD database file
#
# Track frame offsets:
#	150
#	24430
#	47482
#	70237
#	90695
#	114915
#	134430
#	162272
#	186742
#	200500
#	226910
#	230547
#	256372
#	281790
#	298445
#
# Disc length: 4458 seconds
#
# Revision: 4
# Processed by: cddbd v1.5.1PL0 Copyright (c) Steve Scherf et al.
# Submitted via: CDex 1.51
#
DISCID=e211680f
DTITLE=Breakbeat Era - Ultra-Obscene
DYEAR=1999
DGENRE=Breakbeat
TTITLE0=Past Life
TTITLE1=Rancid
TTITLE2=Ultra-Obscene
TTITLE3=Bullitproof
TTITLE4=Breakbeat Era
TTITLE5=Time 4 Breaks
TTITLE6=Late Morning
TTITLE7=Anti-Everything
TTITLE8=Animal Machine
TTITLE9=Our Disease
TTITLE10=Max
TTITLE11=Control Freak
TTITLE12=Terrible Funk
TTITLE13=Sex Change
TTITLE14=Life Is My Friend
EXTD=YEAR: 1999
EXTT0=
EXTT1=
EXTT2=
EXTT3=
EXTT4=
EXTT5=
EXTT6=
EXTT7=
EXTT8=
EXTT9=
EXTT10=
EXTT11=
EXTT12=
EXTT13=
EXTT14=
PLAYORDER=
